<svg width="162" height="70" viewBox="0 0 162 70" xmlns="http://www.w3.org/2000/svg"><g id="svgGroup" stroke-linecap="round" fill-rule="evenodd" font-size="9pt" stroke="#000000" stroke-width="0" fill="#000000" style="stroke:#000000;stroke-width:0;fill:#000000"><path d="M 0 70 L 0 0 L 15.7 0 L 22.7 50.1 L 22.9 50.1 L 29.9 0 L 45.6 0 L 45.6 70 L 35.2 70 L 35.2 17 L 35 17 L 27 70 L 17.8 70 L 9.8 17 L 9.6 17 L 9.6 70 L 0 70 Z M 87.3 70 L 100 34.2 L 87.9 0 L 99.5 0 L 106.9 22.6 L 107.1 22.6 L 114.7 0 L 125.1 0 L 113 34.2 L 125.7 70 L 114.1 70 L 106.1 45.6 L 105.9 45.6 L 97.7 70 L 87.3 70 Z M 53.8 70 L 53.8 0 L 83.8 0 L 83.8 10 L 64.8 10 L 64.8 28.5 L 79.9 28.5 L 79.9 38.5 L 64.8 38.5 L 64.8 60 L 83.8 60 L 83.8 70 L 53.8 70 Z M 139.5 70 L 139.5 10 L 128 10 L 128 0 L 162 0 L 162 10 L 150.5 10 L 150.5 70 L 139.5 70 Z"/></g></svg>